ply
format ascii 1.0
element vertex 468
property double x
property double y
property double z
property uchar red
property uchar green
property uchar blue
end_header
0.0979078842119277 -0.3324555081782928 1.4095506845760226 81 60 59
0.3117809117528119 -0.2498207867620276 1.5115919055707294 151 149 152
-0.0509422535487124 -0.3145750719527830 1.5850874164169635 152 152 157
-0.4105208437391158 0.0716263225258359 1.8679038099778551 175 176 180
0.4013063784725451 -0.1289352218292740 1.3055548132990618 38 43 48
0.5076989088224150 -0.1303701363977587 1.2937314393492292 109 101 102
0.5056799630101831 -0.1536638340573634 1.3149990262456610 152 149 156
-0.1278325104441513 -0.2448985328304706 1.3380439166914042 131 131 133
0.4308976613158238 -0.1603457889444895 1.3000289369729661 115 110 116
0.5015317518946211 0.2218303099094790 1.2422233782650565 155 153 156
0.0264754246618581 0.0270383692722219 1.1803912239602465 164 172 174
0.5239950300692130 0.2387036462472394 1.2392809539184710 125 109 109
0.0545279219086505 -0.0034686418902843 1.1887455861128602 91 81 72
0.4396710015743298 -0.1361016226675240 1.2933437913519430 104 91 82
0.5411106423044245 0.1148217225948432 1.2046963801480282 19 11 8
0.5333291678535043 0.0831269565578790 1.2003294374857483 121 114 108
0.1744240399492250 0.2759009883501556 1.2533378950896803 89 88 87
-0.1993487912259964 0.2575674667235606 1.2879592698536584 160 163 168
-0.3809558578589273 0.2289053105167030 1.4628565278329371 155 159 162
-0.3914363554811817 0.2252832361523367 1.4653587511249437 127 129 128
-0.0438731357497139 0.0336650153846539 1.1788680866359866 147 144 139
0.1965461797601973 0.0257959251288565 1.1718789382323891 97 87 85
0.5396444135540682 0.0118978863431976 1.2154205160030667 148 139 134
0.1782674731446104 -0.0011326345728437 1.1726488998193485 91 84 82
0.0686556141628722 0.2002318069089747 1.1752690570757285 80 75 69
0.4620347305718083 0.1618913106270258 1.2137226945970003 165 161 160
-0.1105928904857967 0.1619719202462738 1.1995005383441462 114 115 110
0.2898184345715573 0.0976777090986739 1.1885689883617789 97 83 77
0.3059789685346757 0.0864165418572082 1.2008210859034740 36 30 27
0.3668814381238379 0.0653685761077939 1.1945365501383791 121 110 104
-0.1206010026650717 0.0591650508219129 1.1870095382555730 107 107 107
-0.1142875027178574 0.0587887823808386 1.1849596969769001 114 112 113
0.2197513564546497 -0.0211404517779656 1.1800333040012505 77 68 63
-0.3077598184628993 0.2164101366968242 1.3412201362145828 131 132 134
0.5100724094433926 0.1829429984739585 1.2241822263959734 165 161 162
-0.1077571210327884 0.1666974863809065 1.2016886464590415 170 175 179
0.4845865778262904 0.1293537401532508 1.2099472772584927 166 162 165
0.5295378084162847 0.1074925722959109 1.2016574401659119 117 107 105
-0.1165747183731208 0.1063595067121012 1.1898981305256473 161 165 166
-0.0649166590312361 0.0701448767283688 1.1744457744805663 36 31 35
0.4406094793809295 0.0692956464549149 1.2182026078159429 114 105 98
0.0594350474256911 0.0593349044892421 1.1743620500822913 137 128 119
-0.0558035670374686 0.0594695311241264 1.1747956902130092 148 143 137
-0.2549005812456634 0.0527478111181265 1.2438819076770711 140 135 130
-0.1210033101708739 0.0420318129416449 1.1876819968780878 106 103 107
0.1926875914185638 0.0385909336659048 1.1731330722278628 147 139 136
0.2253404626704600 0.0300914409320609 1.1757907692359990 100 92 89
0.2484671040312554 0.0281309156940361 1.1782556103433652 101 92 87
0.4679372368151152 0.0265382351188736 1.2227046068774814 129 120 118
0.2017087016646321 0.0257745088788173 1.1726525071736782 143 136 133
-0.0914164353929676 0.0272202594152191 1.1801447619166410 110 105 101
0.2060556219663068 0.0191439864165699 1.1726306640407766 101 92 89
0.0012909492324320 0.0181716796484579 1.1883010358262029 94 90 90
0.1403863912149935 0.0125198401737239 1.1747387405970811 139 135 134
0.2030887847219237 0.0085997062228850 1.1736159914872639 93 79 77
0.2072826106124870 -0.0047948105769527 1.1746366934980801 130 122 119
0.0988947590066159 -0.0138952836712019 1.1891786629247829 111 106 103
0.1421378893150546 -0.0152507579024424 1.1785003061937884 104 98 98
-0.0512597511334141 -0.1442504202268710 1.2436779827443165 98 82 69
0.0223520427283120 0.0904489446243792 1.1807238469257018 116 114 115
0.5263532383363716 0.1607366023055505 1.2165841078612438 126 118 115
0.5329492650585846 0.1751176626605113 1.2233775116027963 144 139 136
0.5300205249890844 0.0936848992290511 1.2014332199868776 147 143 144
-0.3721905153519444 0.1257919184313364 1.3832306982399794 32 34 31
0.5351197594096738 0.1590947280462845 1.2151534144425249 133 124 121
0.0223803428878699 0.0904417020309274 1.1806518273965478 116 114 115
-0.1203207083981433 0.1948049881109754 1.2143697606947110 113 112 110
0.0785632977761408 0.0661130151216599 1.1814981337909880 153 153 155
-0.0587791280476287 0.0800106009579036 1.1758963347077427 136 134 135
-0.4329851787166509 0.1169095433530089 1.4220040092232362 75 79 88
-0.2301694378141142 0.3382697843270363 1.3825672628785499 118 114 111
-0.3624211172512910 0.0574178862868665 1.3725451991222528 77 81 82
0.5418479635538519 0.2745624917820731 1.2685697261684026 54 37 24
0.5346430282319290 0.1083945825917063 1.2010694274995268 143 136 130
0.5135586329520332 0.2035436703868439 1.2279110197477467 116 109 106
-0.3712382869753145 0.1175613059799444 1.3810079544842058 135 134 130
0.5347771372972289 0.1356580408491774 1.2062470481876075 134 124 115
-0.3706641372005357 0.0594327305052927 1.3706411397630274 40 44 43
0.5283535765821799 0.0934689609033701 1.2026012903218459 170 166 171
0.0249199379172429 0.0967666630815985 1.1818754102468929 153 151 152
0.2041168137300736 0.3143809885227677 1.2772603371206392 147 142 139
-0.2482802601959890 0.2729429668742556 1.3221869405957793 159 160 162
-0.1022604695850284 0.2310244879845524 1.2270054024843204 114 114 114
0.0350693442955067 0.0711710354495524 1.1740410001921526 129 127 128
-0.3659821183942377 0.1239663409084547 1.3857026585214451 130 125 121
0.5290892859956098 0.1618722705555805 1.2158372131600645 154 148 148
-0.3586581688428806 -0.0017605378894218 1.3825645237659940 142 142 140
0.5270569476323742 0.0891424960829391 1.2024694302790222 162 158 159
-0.2017992036827496 -0.1081479206911233 1.2375726593585821 134 133 131
0.0308078794673387 0.0831880909809690 1.1761444973001984 101 98 93
-0.1986543784145462 -0.1207384462218899 1.2335221258138147 89 86 91
-0.1083123992352143 0.2131418199803796 1.2205865366750324 110 109 105
0.0111586060870549 0.0428547928323285 1.1798859071726451 120 126 126
0.4146733797827096 -0.1577880588908292 1.3074136202662994 130 125 131
0.2262767433479034 0.0411612168353917 1.1770512610163644 134 128 124
0.4821846833502456 0.1426060034682297 1.2114942454985860 166 160 162
0.1420142824528119 -0.0255297189299524 1.1821280953285460 96 92 91
0.2336297190588301 0.0548251057983678 1.1805845151364618 88 79 72
-0.0701050893145845 -0.0007346329452903 1.1789805926844652 93 84 75
0.2117927336486453 0.1955218087869882 1.1387736514876081 167 167 169
-0.1678395341864113 -0.1475163946516196 1.2553537618012971 116 110 114
0.4308798879841089 -0.1603506204557938 1.3001239074131079 115 110 116
-0.0157199103165048 -0.1465648484127407 1.2471000395658107 166 165 170
-0.0303491593402495 -0.2535225994092906 1.3132031973704790 37 32 29
0.5363876921356755 0.2564105305005978 1.2526784432626803 148 137 127
0.2031949644888815 0.0178847253069192 1.1726994629391794 162 156 156
0.5331570672285665 -0.1034506010166499 1.2769060792621476 119 107 107
0.4013049581042570 -0.1289629093193340 1.3057598745629169 38 43 48
0.5097710604187404 -0.0880869568458496 1.2600728306196054 157 152 158
0.0133342406481395 0.0758437219493037 1.1782609183422903 86 86 86
0.0503728380118524 -0.0285489279587673 1.1984108432745437 99 88 86
0.5308463159903805 -0.0198080442032945 1.2250027885279815 161 157 158
0.1443525615431112 -0.0008449659936708 1.1755738562471005 149 145 144
-0.0966965418355443 -0.0624556885243821 1.2079089736536661 145 141 140
-0.2291191092419486 -0.0856927188679457 1.2396401129315908 120 116 115
0.0363324425384651 0.0813083773287353 1.1756007994649338 162 163 165
0.5355084008044821 -0.0113125063334990 1.2201737053824204 132 121 115
-0.2468176039659520 0.1034662420278932 1.2530302633242920 107 102 96
0.5368368424931715 -0.0012248521973332 1.2172208606040640 119 108 102
0.5302258564490417 0.0082987378097583 1.2144876482705598 161 157 156
-0.0942218105329351 -0.2038682326335147 1.2851859298331485 109 98 96
0.1935811077423709 0.0301583090354646 1.1721731537871058 159 152 150
0.2097149478526524 0.1371128780536671 1.1583230764456411 171 169 171
0.1313008439091745 -0.0500503825474601 1.1949649783748892 160 155 159
0.5363163606914338 0.1189821323123738 1.2062652630970878 161 156 153
-0.0558260407994947 0.0329089503778811 1.1757868155825761 145 137 134
-0.0942592336629698 -0.0567612547264964 1.2049247103211660 13 9 10
0.4343533399996572 -0.1388985985687581 1.2920007781903069 152 147 152
0.5283592222284347 0.2089698720557299 1.2284035003505533 166 165 170
-0.0051041597045568 -0.0563257255218617 1.2068225587810182 119 103 90
0.5233092594984223 0.0272469389422592 1.2094758785092321 163 154 157
-0.0858811470533959 0.2015329792161567 1.2092708028472983 40 43 48
-0.1269657033913777 -0.0555927511880810 1.2104682653128789 163 164 169
0.0473116468332046 0.0714157735127049 1.1730461734227084 109 102 96
-0.0604924660300581 -0.0229204950335182 1.1854050266915126 149 147 150
0.1995522617866368 0.0575145075516639 1.1764422022896517 153 148 145
0.2142444682928512 -0.0315257009901985 1.1833038708875181 97 89 86
0.0853641964669657 0.2890758424138173 1.2694296224733062 161 161 163
0.4407029394439015 -0.1679145423142278 1.2976981348170005 171 171 181
-0.0731284054179933 0.0771679614429862 1.1763535116983952 148 150 149
-0.5947866648919913 0.3271648289772984 2.1478516402246397 176 183 189
-0.0997259845010344 -0.1199272566510447 1.2453456840203248 90 82 84
0.0601222407116905 0.2000486195547929 1.1773304664827631 103 102 97
-0.0537060345805720 0.0674130972810127 1.1744919297641672 150 149 145
0.5353545522654676 -0.1495234649895860 1.3198692907586533 106 102 103
0.0560845511646191 0.0870015350361913 1.1769626084047635 105 95 86
0.0595766608980887 -0.1658105815946332 1.2640103170653683 32 27 34
0.1784777433534233 -0.0127819839514028 1.1753161973559711 76 68 66
0.5367111742881210 0.1667390279903260 1.2196381504197180 121 109 97
0.5273853831863762 -0.0899041537605479 1.2572576401784179 114 105 107
0.3632056806749159 0.0660760400676680 1.1957173910118304 173 169 168
0.5474273425907059 -0.0981977466745848 1.2530440910874898 124 111 100
0.2320064155771109 -0.0025636396181107 1.1769679904716801 126 117 112
0.1558831596892196 0.0283089709500488 1.1729003019674433 163 161 164
0.0193041464852942 0.1214236251056017 1.1964818290300048 112 110 113
0.0012528313454690 0.0182653229853886 1.1883200984912812 87 72 67
0.0460941560945717 -0.0605587253110810 1.2141348445288080 103 94 89
0.3808376682912972 -0.2263133986665113 1.3615532543116720 135 134 132
0.0575534368789366 -0.1546658470002116 1.2525170811762356 91 51 33
0.3882777156999802 0.0292122905803419 1.2060810020793842 129 115 111
0.3982713919704860 -0.1142319666161240 1.3046704890177290 158 154 162
0.4054762292711664 -0.1900927747921979 1.3291091687977659 55 61 77
-0.1130675821878705 0.1076005828142026 1.1897656686915410 107 97 95
0.5126747036918637 -0.0578735235346470 1.2452930255611094 107 97 97
-0.0793473803138944 -0.2000279056414224 1.2836502881092777 35 27 24
0.1863790673380682 -0.0908829844272133 1.2289068738413895 114 109 113
0.0094347376553142 -0.1487722108406349 1.2457159949840917 168 168 166
0.1923425644169903 0.1140611297603167 1.1887109287930082 111 85 78
-0.0777328466170675 0.0804144813469920 1.1780151458712671 99 98 96
-0.0692448543476863 -0.1743051356447117 1.2632798060398749 135 134 132
0.1754543742337726 -0.0363010118253227 1.1832383721002422 82 74 71
0.5263919358814825 0.0429719538590123 1.2074297975971053 171 169 172
0.1754006200475137 -0.0253516608737913 1.1788414644079384 92 87 84
0.5324398321656491 0.2439213177074292 1.2431698558599580 134 126 123
0.0745389560131009 -0.1435104285862860 1.2614385133543085 92 78 69
0.0264886526751285 0.0270730551503104 1.1803894903025323 163 163 165
0.3544464843372602 -0.2253359152411463 1.3675109982889846 117 117 117
-0.0069082615133717 -0.1623636395143225 1.2495185426318800 154 152 155
0.0519913919295850 -0.0224778114193171 1.1965343038033747 120 115 112
0.1791880526066042 -0.0320070961595510 1.1815098269625690 135 126 127
0.0513478862017332 0.0657336044598914 1.1734181690424832 149 141 139
-0.1677741350731809 -0.2573341414986354 1.4020062080164937 137 141 152
0.1123996389805933 -0.1704400086193008 1.2877354991748373 111 94 87
0.5317010948751465 0.0126651505260103 1.2134671409559923 112 97 92
0.0564428626024432 0.1119518760879062 1.1882375511160221 109 103 99
0.2861508368152899 0.0089620202517205 1.1828582210585799 28 20 18
0.1824574039039136 -0.0370751372808931 1.1835191867587018 75 65 64
0.4202364919912321 -0.1402889559519138 1.2988795315587809 118 108 107
-0.1597890262378802 -0.0660782188501746 1.2223162696477687 106 101 101
-0.5057928205879204 -0.0001934252487728 1.5036721853756272 148 159 165
0.1099927324810316 -0.1674799345478391 1.2866057607005668 152 147 151
0.0776090150603282 -0.3158268177087045 1.3986654383617314 163 165 174
-0.0734238791428537 -0.2035250339146502 1.2866465919737275 152 141 139
0.1000970509572791 -0.3117286669475901 1.3979655266080919 108 99 100
0.4470549988191312 -0.1960569684549137 1.3063227828840158 123 114 116
0.3853679921952227 -0.1853313319988569 1.3344349934814448 169 167 175
0.5336357285544551 -0.0549172393364094 1.2436194272676335 125 114 110
0.4048442230538222 -0.1267133831256518 1.3040498311350082 29 29 36
0.1901118602371212 -0.2919758276384720 1.3984204334891239 150 149 151
0.4494334746730608 -0.1822458886253426 1.2976249640437096 142 130 124
0.1546120636099343 0.0419272290951512 1.1736471296475508 155 151 152
0.1060171496488734 -0.3088572653745612 1.3966343363135192 113 103 101
-0.0899531469588192 -0.1865868589212005 1.2771903575712142 118 105 105
0.3982957354780932 -0.2229636016132383 1.3563720411061766 169 168 176
0.1445128302735248 -0.0319010199699389 1.1839889097307501 147 145 146
-0.0858761340635957 -0.2090085953815545 1.2894791779031520 116 108 105
0.2665912345437089 -0.1832016196629585 1.3418010255665560 156 151 158
0.1151093068475888 -0.1879907499445045 1.2998404279774154 161 161 163
-0.0657335400695147 0.0572117109308326 1.1744066559013773 160 161 163
0.5374974096906379 -0.1337518369945610 1.3064867321542852 94 85 76
0.5361391101424955 -0.2020130892342347 1.4563441359047768 124 123 128
0.3751721535274659 -0.2326175603193014 1.3835479222067553 148 148 154
0.3938581666908298 -0.1771262227448922 1.3278238699794345 168 176 189
-0.2059927176903188 0.1548266963534493 1.2404268777166929 133 136 141
0.1065135191353117 -0.1940098951110405 1.3075068050830334 163 166 175
0.4500312847652327 -0.1923024835037897 1.3041266782925098 161 156 160
0.1767444410754178 0.0366030059310055 1.1715763505247745 97 89 86
0.5336760331705666 -0.1211831819637498 1.2899435838688145 108 104 103
-0.2197223820996718 0.2339462336890339 1.2891295108218712 123 128 132
0.4524869508780809 -0.2024855402563913 1.3105449409982439 155 158 165
0.3767419523321546 -0.2304192650847910 1.3668040268231372 60 59 65
0.2002145928463396 0.0329251605152927 1.1731750602128632 147 140 138
-0.0860900115873779 0.3586227055318809 1.3273744229082898 91 88 83
0.1131546576981437 -0.1778151218793545 1.2894033814587704 103 87 81
0.0024404559679251 0.0529914433706662 1.1810732744392860 110 114 117
-0.0435832796506180 -0.1738510518271795 1.2641959774449705 101 84 68
-0.0171341889207960 -0.2363077224864993 1.3041377711821611 118 96 82
0.0527067112851068 0.1081793138735577 1.1867944784162983 163 163 163
0.1706887029570396 -0.1093192065568735 1.2498957308377070 95 93 96
-0.0526247356137297 -0.1691991500050672 1.2565113239779016 80 74 76
-0.0900508513115025 0.1590982806467337 1.1953645639683808 147 146 142
0.5250299569207993 0.1523536491740894 1.2096833978225021 166 170 175
0.2499215110081387 0.0318691793879407 1.1790560161846837 149 143 139
0.5357338051653847 -0.1621764540005108 1.3374288801011194 114 110 111
-0.1036937130040390 0.2041170435476007 1.2155670017681910 116 116 114
-0.1205749446600885 0.0590861159407324 1.1871620293893652 117 117 117
0.4807397970786240 -0.1636486286656902 1.3192869621344849 64 57 67
0.5283181010928181 0.1704054553352774 1.2201655065090946 101 87 87
-0.1220040319416570 0.2314661704726374 1.2314643596083743 107 102 99
0.5002427400411520 0.1878409708884970 1.2250522724354345 109 94 97
-0.2060864233656984 0.2582012916551187 1.2928506789717977 117 121 124
0.5396803126639350 0.2369123379438941 1.2400062795501470 125 113 97
-0.2636336169823374 0.2711931540347912 1.3277527228909489 175 184 191
-0.2465215012517882 0.2822952593852565 1.3268695656461267 137 137 134
0.4692278096220588 0.2636451287877284 1.2808369764720087 152 151 149
0.1952777813371734 0.3113893740080392 1.2744549963670515 146 145 143
0.3845005751211303 0.0241236076551255 1.2058866753823043 40 30 29
-0.0523836011519729 -0.2938818434023868 1.3484696189305927 153 153 155
0.2182673428853663 0.3103936883556323 1.2756898811984272 90 82 77
0.2891232001804300 0.3120018836927311 1.2876038564886816 40 27 28
-0.2595791934038484 0.3227300507191647 1.3698723920217526 156 165 164
0.3238307929577069 0.3161122523582071 1.2959094923637287 159 159 159
0.2679086530535625 0.0784681762235666 1.1936010722252219 165 160 162
0.5301876352477946 -0.0758587989757426 1.2545556628168770 134 135 137
0.0498395362850651 0.3436687397203661 1.3056180756110807 109 104 101
0.2519403774570912 0.3323898753285752 1.2964733675217213 149 146 143
0.2148506071689698 0.3392820447849518 1.2969146646400171 158 158 154
-0.0532126847568880 0.3561213177783508 1.3122030836497933 150 154 155
0.5549656517101123 -0.2590613171669487 2.4763736945240593 107 96 94
0.2096364671376740 0.1412302108636472 1.1550014329163671 170 168 173
-0.0802689681108419 0.3601740374138447 1.3288021831245833 143 143 141
0.2063764185985178 0.1431161126855761 1.1548081185418484 125 114 110
0.5242234921836889 0.3193311151461775 1.3251827460165901 129 124 121
-0.0761682762577807 0.3701888488337853 1.3394231033843615 145 144 144
0.5333583393938944 0.3333258172127671 1.3462363137611040 165 164 162
-0.4462539941050254 0.1707420713032250 1.4547357550265447 113 113 105
0.0836330544813347 0.2784571948465094 1.2666750888425782 157 155 156
-0.2410473233023532 0.2825448956195312 1.3259185099168860 112 108 97
0.1560128415110701 0.0284910332840441 1.1724512964912470 158 158 160
0.2866737829176849 0.3230792501577746 1.2944165095366922 144 144 142
0.5291311996234066 0.3343838095854271 1.3517325670583424 168 166 167
0.1922362079198775 0.0389363354657114 1.1724359639530180 142 138 135
0.1739519625321011 0.3749195588615361 1.3472743731452739 94 85 80
-0.1883923338793697 0.2326080387481958 1.2659557908086536 160 167 173
0.5316024577836809 0.1908889074854904 1.2244021718613849 149 144 141
-0.0998537325073283 0.2051277238022367 1.2151788561199259 151 155 158
0.1744133913234965 0.2759264076564844 1.2532879622012325 102 100 99
-0.0230489021121692 -0.1485006400277037 1.2544726699036777 157 164 171
-0.0925064401092777 0.1671844050501403 1.1985330420730465 115 112 105
-0.4033826622293591 0.1598936080738660 1.4288179479998426 185 194 201
0.0928490139124704 -0.1821166024878858 1.2912382843919492 161 164 171
-0.0400728400338493 -0.2903565921104609 1.3460915817556036 155 160 166
0.5301580115684483 0.0083844395374162 1.2137407952805939 159 157 162
0.5274929553118416 0.1587962828827483 1.2137127051203440 108 94 91
0.3612988285165508 0.3181494642428291 1.3093262807939463 45 25 19
0.0347604667787027 0.0715312598697759 1.1733529111559193 131 131 133
0.4034042554376944 -0.1345162466965542 1.3054618014442334 151 149 153
-0.1254618220548024 -0.1671187753202237 1.2458895683949140 84 75 76
0.5199892985869733 -0.0951918034965755 1.2644306455250791 84 75 70
0.2150367737859302 0.0479608493138537 1.1775222969862884 147 142 139
0.5423341277928456 0.2420985904205850 1.2417835352857503 24 14 12
-0.1405583741306038 -0.0605695210124898 1.2153500324205191 112 108 109
0.0855784537418692 0.3506639073673507 1.3223260564966159 145 145 143
0.0322054920561277 0.0765976822412997 1.1747774979071495 86 81 78
0.4243472249625994 -0.1314558361232184 1.2991827578846542 158 154 160
0.0707646825076172 0.2925886782742009 1.2655389393323786 107 95 83
-0.1289924893157265 -0.1696292302319317 1.2495153933648906 159 166 174
0.5366456560053497 -0.0704655610333346 1.2528956413163048 123 113 105
0.0827083280372156 -0.1822953665633753 1.2897037589943434 113 109 106
-0.0605015114312685 0.0699785821279021 1.1745912532586653 141 136 133
0.0858120887155397 0.3067372263471173 1.2780160361359696 159 163 166
-0.4540739845242737 0.2034212304065672 1.5250734059132649 197 202 206
-0.1483607966713986 0.3180125113953691 1.3092099249339486 168 178 180
0.0113482486275305 0.0507397368780134 1.1787231072385209 151 152 154
0.5352546381798983 -0.1282246732070439 1.3000542513385296 103 99 94
-0.0962565392801750 0.1470527477510934 1.1933721207660781 117 113 110
-0.1018965879704405 0.3078513426404484 1.2782285795372259 101 100 98
-0.1252378778804636 0.2928339687091124 1.2740972553507153 110 112 111
-0.1883422416767937 -0.1262279535965761 1.2332556392685614 69 67 72
0.3056795191689368 0.0863395167248782 1.2002672125481020 36 30 27
0.1692433864887536 -0.0020576081879612 1.1730509521556975 147 146 145
0.1861993231339190 -0.0910108641686150 1.2287858769137543 17 16 21
-0.0914410364760663 0.1787972056875947 1.2035726023075688 161 166 170
-0.3623820177451844 0.0663201927323240 1.3754473867632782 141 143 142
0.5267576183239674 0.3262555960126787 1.3353476939719013 187 187 189
0.0259475263453834 -0.0385793695874879 1.2082588070684512 146 156 158
-0.0937702686642392 0.2035709158138900 1.2124608475411682 137 139 138
0.2791400473183862 -0.1516415948655911 1.3158890380563126 107 96 94
-0.0571373348056302 0.0679205513452599 1.1744305252942975 148 144 141
0.1859391382983668 0.2567882962055547 1.2015970450078495 163 166 171
0.3537979142979735 0.3203381826827622 1.3084855821259620 123 114 103
0.1119573124733842 -0.3458439981870433 1.4222723756244939 147 147 149
-0.0750700085701238 -0.0449567852488301 1.1974168654761796 152 148 149
0.5308773323157028 -0.1405900324693403 1.3082926851216339 119 117 119
0.1476937091399703 0.0611271814958131 1.1762607578950386 118 116 117
0.1693388778609305 0.3679519468937273 1.3337319644624364 31 22 19
0.5241226726880590 0.2163456771814005 1.2308215146442385 167 165 170
0.0765461992921568 0.3581588445260651 1.3301029644158586 90 74 59
0.5110866496046986 -0.0364028340715989 1.2307470721270157 104 93 87
0.5320308760602920 0.1703756755588466 1.2210782372476872 145 141 140
-0.0528010433953843 -0.1563478344201272 1.2563175676946043 118 108 98
0.3995355460557604 -0.1926020272136756 1.3335985868899138 163 162 175
0.1806565961287069 0.0350845341425009 1.1717964438989188 155 159 159
0.5393450586091004 0.0121576092183696 1.2147741650365660 146 137 132
-0.2575631341881924 0.1697352555933324 1.2773241362402306 110 103 93
0.2893734243077626 0.3193250392178063 1.2925964737980029 155 159 163
-0.0823930432846981 0.3678394615882961 1.3386505193072946 94 94 94
0.5099973888100493 0.1830113249189081 1.2242486598979014 166 167 169
0.5278220010406686 0.3210239517881749 1.3251170644067407 178 178 180
0.1491455052504932 -0.0492629701032383 1.1913210348407366 92 86 86
-0.0777002499001259 0.1919509788842039 1.2039487653784429 152 158 158
0.2216666280639518 0.0293138633917880 1.1749581041198558 159 157 158
-0.0198207999474679 -0.2499015682750255 1.3152412026142972 142 138 137
0.3399474277527110 0.1324158860957587 1.1881571329708027 105 87 74
0.0565561575548124 0.3269977938898815 1.2839341485805191 157 161 162
0.3186755085047443 0.3183392115353693 1.2965476306335555 151 150 148
0.2364834953829282 0.3422768384368442 1.3020906413511342 75 64 60
-0.1850570480140777 0.0949000694241829 1.2153162911977509 119 120 122
0.4408223345125765 -0.2284223644629037 1.3383501681970997 161 166 174
-0.0419767530698861 0.3178331295657223 1.2770592009141990 88 76 62
-0.2569989532083451 0.2435960263833662 1.3100828593242979 114 111 106
-0.0445314799571400 0.3607105947550401 1.3195889586260356 44 33 39
0.2775164348290582 0.3392572102817026 1.3070817979594320 151 148 146
-0.0930086589505610 0.3559957202044035 1.3235260115658611 148 154 154
0.5290897792899140 0.2839818014443474 1.2760398179562460 161 159 160
0.3125011132555656 0.2625596765689753 1.2628016124861305 49 33 33
-0.2369688611073483 0.2750875883374052 1.3228528990340602 107 104 100
-0.0893176070716757 0.2907672749706914 1.2595810551887534 124 123 119
-0.4442828260250956 0.1783671905883054 1.4581195902855006 124 121 112
0.2172889984840822 0.2715979862335252 1.2087152493516258 164 168 171
-0.1089362963026095 0.1896788032700739 1.2101842128742570 154 162 165
-0.1105513888372313 0.1619138341066388 1.1992000287599589 114 115 110
-0.2073009111316604 0.1303315047244908 1.2365737250711628 165 173 176
0.0661703915080449 0.4032587680748518 1.4764577562071433 153 153 151
0.5356757428367004 0.1990079697260225 1.2253223979746095 143 134 126
0.3852341967401703 -0.1899932962461829 1.3391058657678068 168 176 187
-0.0425056020546221 -0.2622551479898216 1.3190214204681083 107 100 94
0.5325945791076873 -0.1895945622053809 1.3959002300491414 141 141 150
0.5391012550165621 -0.1913529931364265 1.4119523923683217 115 114 119
0.5171990621045243 -0.2043523688604576 1.4464674717988082 143 147 158
0.2014639316740802 -0.2770328382099886 1.6260092316175823 174 174 182
0.3827789312388767 0.0220389898679768 1.2061085354920451 29 25 22
0.2274496493919236 -0.0717704057732042 1.2143764008491422 136 134 137
-0.2227668933108835 -0.0950314472297706 1.2437284686934227 109 108 104
-0.1214947708065727 -0.1660257660660640 1.2473854021945134 129 124 120
-0.0552491317525833 -0.1652739230138453 1.2528491715660439 143 147 153
-0.0697882365303770 -0.1684373157168840 1.2535016171083635 161 170 179
0.0554964302729366 -0.1638082842825191 1.2603086345408727 78 67 65
-0.0059639239703460 -0.1718436680802896 1.2590001979880925 39 38 46
0.3982801723172546 -0.1144027708012962 1.3044422996067917 162 169 176
0.5035123926706079 -0.1413392999140662 1.3013116552540702 107 105 108
0.5005335695010454 -0.1545791471828082 1.3142922597736184 105 103 107
0.4039260563796342 -0.1665516759584419 1.3172161027760827 114 113 118
0.0011729980269968 -0.2113305964349106 1.2957209085861601 106 97 88
-0.1575523733401869 -0.2128613046836552 1.2915576762426879 170 175 181
0.3996606052010352 -0.1793188821484483 1.3254649773370371 128 128 132
0.2122279421492411 -0.1799991602496773 1.3405276034229603 74 75 80
0.3709339753712056 -0.1954026179038418 1.3441849177120786 160 163 174
0.3750312787589684 -0.1973806250940607 1.3437758473985180 117 114 121
-0.2286515625910863 -0.2044286027099747 1.3279224618391243 155 160 166
0.5174606213540989 -0.1835055264753586 1.3640429994585790 140 141 153
-0.0331830440263399 -0.2588777599439844 1.3159861636388426 158 161 166
-0.1307023012727301 -0.2428722397218361 1.3332920419473615 177 186 195
0.3942114675425761 -0.2238422095179903 1.3596455728936829 125 120 124
-0.1495168706152972 -0.2341652642278995 1.3504478825134378 110 100 101
-0.1463816083218790 -0.2427110590958060 1.3627159574022887 108 109 113
-0.0586796564067742 -0.2838355211372409 1.3426476260325788 142 142 150
0.5388789866394640 -0.1944034865579803 1.4174571487887466 109 108 111
-0.0456310534541608 -0.3037184993781490 1.3543489594164380 103 93 85
-0.0452743127724748 -0.3068367093699179 1.3578729119373298 119 112 106
-0.0495167743023877 -0.3081995426077189 1.3577674702514140 94 77 69
0.1822429156177658 -0.2999540617237972 1.4033260242734287 159 156 159
0.1722837697602281 -0.0704382721380171 1.2057773028633816 105 105 107
0.2702788952189360 -0.0098524975625327 1.1845880540291620 142 131 127
0.1664980772719800 -0.0736391275077611 1.2082855651467104 148 151 156
0.5274488660201965 -0.0524810732820449 1.2428424026507956 72 76 79
0.1210275719567007 -0.0243590700768032 1.1858215840157678 105 101 102
-0.0997076128945319 -0.1203123833138418 1.2450270792186198 85 87 89
-0.1062042055606992 -0.0262085927207164 1.1941646982604821 105 96 97
0.5277410808963577 -0.1004661468171724 1.2713393021330102 132 131 131
-0.2491357122149462 -0.0256427351818706 1.2371219584955797 121 111 109
0.5120122342107974 -0.1103687888569619 1.2763394006603626 107 106 103
0.2197347082755886 -0.0317432198645756 1.1841138786208245 139 129 130
0.5077459781181634 -0.1255359258746233 1.2881863343119300 100 98 100
0.1027765664038817 -0.0314709660721783 1.1931831172482621 161 160 165
-0.0722222722318812 -0.1720163981747752 1.2573146961887638 127 124 125
-0.0671451296089153 -0.0310731225757690 1.1904032546998320 168 169 174
-0.0085616268960357 -0.1729292017921530 1.2615089458777911 150 153 160
0.2229358362072183 -0.0342444191501975 1.1853035173318669 89 82 80
-0.0489071466115663 -0.1736126647430857 1.2621552978887751 152 153 157
0.1655754125359613 -0.0361430272730890 1.1836415971978433 150 145 148
0.0289421494000793 -0.1664028869066587 1.2739830325213588 102 87 84
0.1403865878470742 -0.0359356955753525 1.1862575369033976 102 98 99
0.1086835169514898 -0.1737591240260121 1.2867849179025277 139 139 139
-0.1431076403715200 -0.2026100141460965 1.2763252645391971 53 47 49
0.4453765948478300 -0.1835959243998540 1.3004770385620781 161 165 170
0.4498146760080477 -0.1949051125994634 1.3051928486197286 163 165 170
0.3960259158465040 -0.1707434803774830 1.3209204607510834 117 117 118
0.5230903900978733 -0.1649749225107979 1.3341151650626006 136 136 145
0.3454863735166777 -0.1725926530857700 1.3271420680333397 169 169 176
0.4099077796984159 -0.1848533070043610 1.3243885783215095 157 161 170
0.4004223056165346 -0.1843492736380764 1.3300697979704226 162 169 178
0.1762609984885342 -0.1899358799466102 1.3394743823980915 134 129 126
0.1953457110404091 -0.1868172791663631 1.3429893555608110 137 136 134
0.5396786417542874 -0.1814525506199932 1.3779997673897006 108 105 108
-0.1270323905980586 -0.2419703578352535 1.3317960976011738 94 84 85
0.1975779005430691 0.0544202319992241 1.1754928711767292 103 93 90
-0.0199369391337519 -0.0612133192285991 1.2038155854411272 153 149 146
-0.0260935825571201 -0.1548720387338433 1.2533390785433303 166 166 174
0.5238569828677270 0.1670440900468984 1.2188645941015928 162 157 159
-0.0996956075236924 -0.1199525495541393 1.2454396042622353 90 82 84
-0.1115132544869223 0.1840181155301300 1.2083414414918303 112 107 103
-0.0935497245655412 0.1420257481904353 1.6946295168816843 155 154 152
0.1843003249222586 -0.0277796668075649 1.1794400373358898 19 15 16
0.1934013895378077 0.0524414855781923 1.1749810505898621 130 125 122
0.2217542660167443 0.0085462638492153 1.1750500933749530 146 139 136
0.2031538656152094 0.0110008404911813 1.1730588283097845 85 74 70
0.5234487647667888 0.0942600788149232 1.2015613540730021 103 93 91
0.2062915866172623 0.0082555082821412 1.1734713911765844 153 144 144
-0.3611230375437020 0.0069278304356574 1.3825649959521886 97 92 88
-0.3593865304383176 -0.0018459017828531 1.3831520050640491 142 142 140
-0.1192139032494739 0.1290657168394602 1.1945385004446725 108 103 99
0.5424516402065860 0.0202883714735302 1.2133871298728618 19 14 10
0.5469218344457347 -0.0290400426431164 1.2274013146410598 115 92 78
0.0247753300387082 0.1027802611646314 1.1832525972515573 67 61 61
0.1377820721850548 -0.0190771965547278 1.1807465940510768 107 103 102
0.2245542525155407 -0.0283366767176436 1.1829062225756473 70 59 57
0.5013750233303031 -0.1470444992520040 1.3047836731442353 115 108 113
-0.0725016857977090 0.0622028432652511 1.1752827185769628 147 146 142
0.2076965618297985 0.1509136712259308 1.1506397970471829 162 160 163
0.1604478479785413 -0.0427115318536098 1.1865900216551244 82 76 76
0.5275508111014973 -0.0522854422539715 1.2429599658637975 67 65 70
0.1116425173384451 -0.7785390215315284 0.4332785105278144 0 255 0
-1.0811033003534567 0.6268931693988719 -0.1448225307665233 0 255 0
-0.0281880576370129 0.4547766643979677 0.2363441620958090 0 255 0
0.1262415351814416 -1.1161655684197218 0.8394229879516625 0 255 0
-0.0130342691892067 -0.0386041798223855 0.0987374103183583 0 255 0
0.1788621498811278 0.8316233038202142 0.3146455913418644 0 255 0
